<svg width="43" height="43" viewBox="0 0 43 43" fill="none" xmlns="http://www.w3.org/2000/svg">
<path d="M19.8601 26.9999C19.723 26.9995 19.5874 26.9708 19.4618 26.9158C19.3362 26.8607 19.2233 26.7804 19.1301 26.6799L14.2701 21.5099C14.0884 21.3163 13.9911 21.0585 13.9995 20.7931C14.008 20.5277 14.1215 20.2766 14.3151 20.0949C14.5087 19.9132 14.7665 19.8159 15.0319 19.8244C15.2973 19.8328 15.5484 19.9463 15.7301 20.1399L19.8501 24.5299L28.2601 15.3299C28.3454 15.2236 28.4516 15.1359 28.5721 15.0722C28.6926 15.0084 28.8248 14.97 28.9607 14.9592C29.0966 14.9484 29.2332 14.9655 29.3622 15.0095C29.4912 15.0534 29.6099 15.1233 29.711 15.2148C29.812 15.3062 29.8933 15.4174 29.9498 15.5415C30.0063 15.6655 30.0369 15.7998 30.0396 15.936C30.0423 16.0723 30.0172 16.2077 29.9657 16.3339C29.9141 16.4601 29.8374 16.5745 29.7401 16.6699L20.6001 26.6699C20.5077 26.7723 20.3952 26.8544 20.2696 26.9112C20.144 26.968 20.0079 26.9982 19.8701 26.9999H19.8601Z" fill="#D69807"/>
<circle cx="21.5" cy="21.5" r="21" stroke="#D69807"/>
</svg>
