<svg width="63" height="63" viewBox="0 0 63 63" fill="none" xmlns="http://www.w3.org/2000/svg">
<path d="M1.54313 24.8605C34.1035 24.8605 50.1243 14.2184 57.4644 6.48246V12.8179C57.4644 13.4387 57.9683 13.9425 58.5891 13.9425C59.2099 13.9425 59.7137 13.4387 59.7137 12.8179V3.49243C59.7137 3.47144 59.7032 3.45494 59.7017 3.43395C59.6972 3.35448 59.6747 3.281 59.6552 3.20602C59.6372 3.14005 59.6252 3.07257 59.5952 3.01109C59.5652 2.94961 59.5218 2.89713 59.4813 2.84164C59.4363 2.77866 59.3913 2.71718 59.3328 2.6632C59.3178 2.64971 59.3103 2.63021 59.2953 2.61672C59.2564 2.58523 59.2069 2.57473 59.1634 2.54924C59.0974 2.50875 59.0344 2.46976 58.9609 2.44277C58.8845 2.41578 58.811 2.40679 58.733 2.39779C58.685 2.39179 58.6401 2.3678 58.5891 2.3678H48.3729C47.7521 2.3678 47.2483 2.87163 47.2483 3.49243C47.2483 4.11323 47.7521 4.61707 48.3729 4.61707H56.1239C49.2276 12.0666 33.7751 22.6112 1.54163 22.6112C0.920828 22.6112 0.416992 23.115 0.416992 23.7358C0.416992 24.3566 0.922328 24.8605 1.54313 24.8605Z" fill="white"/>
<path d="M15.9739 38.8704H1.5426C0.921805 38.8704 0.417969 39.3742 0.417969 39.995V61.2491C0.417969 61.8699 0.921805 62.3737 1.5426 62.3737H15.9739C16.5947 62.3737 17.0985 61.8699 17.0985 61.2491V39.995C17.0985 39.3727 16.5947 38.8704 15.9739 38.8704ZM14.8493 60.1229H2.66724V41.1196H14.8493V60.1229Z" fill="white"/>
<path d="M61.8401 17.6194H60.0332C59.9282 17.6194 59.8323 17.6524 59.7363 17.6794C59.7048 17.6884 59.6718 17.6869 59.6403 17.6989C59.5099 17.7483 59.3929 17.8218 59.2909 17.9148C59.2849 17.9193 59.276 17.9208 59.27 17.9268C59.2685 17.9283 59.2655 17.9298 59.2625 17.9328C59.2535 17.9418 59.2415 17.9493 59.231 17.9598C55.8826 21.0758 51.7574 23.8424 46.971 26.1876C46.9695 26.1891 46.968 26.1906 46.965 26.1906C46.947 26.1996 46.932 26.2086 46.914 26.2176C46.8825 26.2326 46.863 26.2611 46.8315 26.2806C46.7415 26.3361 46.6546 26.393 46.5841 26.471C46.5451 26.5145 46.5211 26.5655 46.4896 26.612C46.4416 26.6824 46.3936 26.7514 46.3622 26.8309C46.3352 26.9014 46.3307 26.9748 46.3187 27.0498C46.3097 27.1098 46.2842 27.1623 46.2842 27.2238V61.2477C46.2842 61.8685 46.788 62.3723 47.4088 62.3723H61.8416C62.4624 62.3723 62.9663 61.8685 62.9663 61.2477V18.744C62.9648 18.1232 62.4609 17.6194 61.8401 17.6194ZM60.7155 60.1231H48.5319V27.9045C53.131 25.5923 57.1391 22.8962 60.4561 19.8687H60.7155V60.1231Z" fill="white"/>
<path d="M39.9722 30.3487C39.9677 30.3352 39.9572 30.3277 39.9527 30.3157C39.9212 30.2348 39.8733 30.1688 39.8268 30.0983C39.7923 30.0458 39.7638 29.9889 39.7218 29.9439C39.6693 29.8869 39.6033 29.8494 39.5389 29.8044C39.4849 29.7669 39.4369 29.7219 39.3769 29.6949C39.3109 29.6635 39.2375 29.6545 39.1655 29.6365C39.0935 29.62 39.026 29.596 38.9511 29.593C38.9346 29.593 38.9226 29.584 38.9076 29.584C38.8356 29.584 38.7741 29.6125 38.7051 29.6245C38.6527 29.6335 38.5987 29.626 38.5462 29.6455C34.1646 31.133 29.3647 32.3356 24.2813 33.2173C24.2393 33.2248 24.2079 33.2488 24.1674 33.2608C24.0909 33.2833 24.0189 33.3088 23.9484 33.3463C23.887 33.3793 23.833 33.4182 23.7805 33.4602C23.722 33.5067 23.6695 33.5547 23.6215 33.6132C23.5766 33.6672 23.5406 33.7226 23.5061 33.7841C23.4701 33.8486 23.4416 33.9116 23.4176 33.9821C23.3936 34.0525 23.3831 34.123 23.3741 34.1995C23.3696 34.2415 23.3486 34.2805 23.3486 34.3254V61.2492C23.3486 61.87 23.8525 62.3738 24.4733 62.3738H38.9061C39.5269 62.3738 40.0307 61.87 40.0307 61.2492V30.7086C40.0307 30.6441 40.0037 30.5872 39.9947 30.5242C39.9857 30.4657 39.9932 30.4072 39.9722 30.3487ZM25.5994 60.1231V35.2551C29.8925 34.4724 33.9742 33.4602 37.7829 32.2441V60.1231H25.5994Z" fill="white"/>
<path d="M1.84319 15.8798C2.09511 15.9563 2.35752 16.0192 2.62893 16.0687C2.89884 16.1197 3.19125 16.1572 3.50465 16.1827C3.77906 16.2052 4.08496 16.2172 4.41785 16.2187V18.0526L4.71025 18.1185C4.83172 18.1455 4.95168 18.165 5.07614 18.18C5.1976 18.1935 5.31906 18.1995 5.44052 18.1995C5.54848 18.1995 5.66394 18.1935 5.7884 18.18C5.91436 18.165 6.03282 18.1455 6.14379 18.117L6.4272 18.0451V15.9847C7.41687 15.7448 8.21012 15.3025 8.78593 14.6667C9.42922 13.9559 9.75611 13.0337 9.75611 11.9226C9.75611 11.3647 9.67814 10.8774 9.52369 10.4755C9.37074 10.0722 9.15181 9.71678 8.8729 9.41688C8.60299 9.12597 8.2716 8.87256 7.88922 8.65963C7.52334 8.45869 7.11697 8.26525 6.68511 8.08531L5.99984 7.79591C5.63096 7.64146 5.30106 7.499 5.01016 7.36855C4.74175 7.24858 4.51382 7.11513 4.32938 6.97267C4.16443 6.84672 4.03997 6.69976 3.9575 6.54232C3.87653 6.38487 3.83604 6.19293 3.83604 5.9665C3.83604 5.49116 3.98449 5.15527 4.28889 4.94084C4.63078 4.69941 5.14511 4.57795 5.8184 4.57795C6.34023 4.57795 6.80357 4.61994 7.19795 4.70541C7.59532 4.78939 7.9522 4.89135 8.2611 5.00532L8.59999 5.13127L8.73795 4.79688C8.95537 4.27355 9.09633 3.73823 9.15931 3.2044L9.1938 2.9135L8.92089 2.80853C8.55051 2.66758 8.10665 2.55211 7.60131 2.46514C7.21594 2.39916 6.82307 2.35118 6.4272 2.32119V0.707714L6.14379 0.635737C5.71043 0.527772 5.12562 0.520274 4.69676 0.637236L4.41935 0.712212V2.42765C3.44767 2.61059 2.67392 2.99897 2.1191 3.58528C1.4953 4.24206 1.1789 5.09079 1.1789 6.10896C1.1789 6.61729 1.24638 7.06564 1.38134 7.44052C1.51629 7.8199 1.71423 8.15729 1.96915 8.4392C2.21507 8.71211 2.50597 8.95053 2.83736 9.14847C3.15076 9.33591 3.50165 9.50835 3.87503 9.6598L4.73575 10.0167C5.15411 10.1966 5.51849 10.3556 5.82889 10.492C6.1078 10.615 6.33873 10.7514 6.51567 10.8969C6.67612 11.0304 6.79308 11.1788 6.86955 11.3542C6.95053 11.5342 6.99101 11.7666 6.99101 12.047C6.99101 12.6048 6.80207 13.0262 6.4122 13.3381C6.00433 13.665 5.34455 13.8314 4.45234 13.8314C3.87203 13.8314 3.37419 13.7835 2.97232 13.689C2.55096 13.59 2.14009 13.4746 1.74272 13.3456L1.40383 13.2346L1.27787 13.569C1.17591 13.8314 1.08593 14.1014 1.00496 14.3803C0.920988 14.6697 0.865506 14.9636 0.838514 15.2515L0.811523 15.5469L1.09343 15.6414C1.34985 15.7268 1.59877 15.8063 1.84319 15.8798Z" fill="white"/>
</svg>
