<svg width="68" height="68" viewBox="0 0 68 68" fill="none" xmlns="http://www.w3.org/2000/svg">
<path d="M19.513 37.2412C17.6698 37.2412 16.1699 38.7411 16.1699 40.5843C16.1699 42.4274 17.6698 43.9273 19.513 43.9273C21.3561 43.9273 22.856 42.4274 22.856 40.5843C22.856 38.7411 21.3561 37.2412 19.513 37.2412ZM19.513 41.6986C18.899 41.6986 18.3986 41.1994 18.3986 40.5843C18.3986 39.9691 18.899 39.4699 19.513 39.4699C20.127 39.4699 20.6273 39.9691 20.6273 40.5843C20.6273 41.1994 20.127 41.6986 19.513 41.6986Z" fill="white"/>
<path d="M6.14093 62.8713H32.8854C33.5005 62.8713 33.9998 62.3732 33.9998 61.757V57.2996C33.9998 56.6833 33.5005 56.1852 32.8854 56.1852H31.771V47.2704H32.8854C33.3356 47.2704 33.7423 46.9996 33.9151 46.5829C34.0878 46.1661 33.992 45.6869 33.6733 45.3682L20.301 31.996C19.8653 31.5603 19.161 31.5603 18.7253 31.996L5.35308 45.3682C5.03438 45.6869 4.93854 46.1661 5.11127 46.5829C5.28399 46.9996 5.69073 47.2704 6.14093 47.2704H7.25528V56.1852H6.14093C5.52581 56.1852 5.02658 56.6833 5.02658 57.2996V61.757C5.02658 62.3732 5.52581 62.8713 6.14093 62.8713ZM19.5132 34.3595L30.1954 45.0417H8.83098L19.5132 34.3595ZM29.5423 47.2704V56.1852H26.1993V47.2704H29.5423ZM23.9706 47.2704V56.1852H20.6275V47.2704H23.9706ZM18.3988 47.2704V56.1852H15.0558V47.2704H18.3988ZM12.827 47.2704V56.1852H9.48399V47.2704H12.827ZM7.25528 58.4139H31.771V60.6426H7.25528V58.4139Z" fill="white"/>
<path d="M48.4866 10.4967C46.6435 10.4967 45.1436 11.9966 45.1436 13.8398C45.1436 15.6829 46.6435 17.1828 48.4866 17.1828C50.3298 17.1828 51.8297 15.6829 51.8297 13.8398C51.8297 11.9966 50.3298 10.4967 48.4866 10.4967ZM48.4866 14.9541C47.8726 14.9541 47.3723 14.4549 47.3723 13.8398C47.3723 13.2246 47.8726 12.7254 48.4866 12.7254C49.1006 12.7254 49.601 13.2246 49.601 13.8398C49.601 14.4549 49.1006 14.9541 48.4866 14.9541Z" fill="white"/>
<path d="M35.1146 36.1268H61.859C62.4742 36.1268 62.9734 35.6287 62.9734 35.0125V30.5551C62.9734 29.9388 62.4742 29.4407 61.859 29.4407H60.7447V20.5259H61.859C62.3092 20.5259 62.716 20.2551 62.8887 19.8383C63.0614 19.4216 62.9656 18.9424 62.6469 18.6237L49.2746 5.25147C48.8389 4.81575 48.1347 4.81575 47.699 5.25147L34.3267 18.6237C34.008 18.9424 33.9122 19.4216 34.0849 19.8383C34.2576 20.2551 34.6644 20.5259 35.1146 20.5259H36.2289V29.4407H35.1146C34.4994 29.4407 34.0002 29.9388 34.0002 30.5551V35.0125C34.0002 35.6287 34.4994 36.1268 35.1146 36.1268ZM48.4868 7.61501L59.169 18.2972H37.8046L48.4868 7.61501ZM58.516 20.5259V29.4407H55.1729V20.5259H58.516ZM52.9442 20.5259V29.4407H49.6012V20.5259H52.9442ZM47.3724 20.5259V29.4407H44.0294V20.5259H47.3724ZM41.8007 20.5259V29.4407H38.4576V20.5259H41.8007ZM36.2289 31.6694H60.7447V33.8981H36.2289V31.6694Z" fill="white"/>
<path d="M66.3162 0.467529H1.68369C1.06857 0.467529 0.569336 0.965645 0.569336 1.58188V66.2144C0.569336 66.8306 1.06857 67.3287 1.68369 67.3287H66.3162C66.9313 67.3287 67.4305 66.8306 67.4305 66.2144V1.58188C67.4305 0.965645 66.9313 0.467529 66.3162 0.467529ZM65.2018 65.1H2.79804V2.69624H65.2018V65.1Z" fill="white"/>
<path d="M7.25507 4.92493H5.02637V7.15363H7.25507V4.92493Z" fill="white"/>
<path d="M10.5988 8.26794H8.37012V10.4967H10.5988V8.26794Z" fill="white"/>
<path d="M13.9416 11.6111H11.7129V13.8398H13.9416V11.6111Z" fill="white"/>
<path d="M17.2844 14.9541H15.0557V17.1828H17.2844V14.9541Z" fill="white"/>
<path d="M20.6281 18.2971H18.3994V20.5258H20.6281V18.2971Z" fill="white"/>
<path d="M25.0852 18.2971H22.8564V20.5258H25.0852V18.2971Z" fill="white"/>
<path d="M29.5422 18.2971H27.3135V20.5258H29.5422V18.2971Z" fill="white"/>
<path d="M29.5422 22.7546H27.3135V24.9833H29.5422V22.7546Z" fill="white"/>
<path d="M29.5422 27.212H27.3135V29.4407H29.5422V27.212Z" fill="white"/>
<path d="M29.5422 31.6694H27.3135V33.8981H29.5422V31.6694Z" fill="white"/>
<path d="M31.7717 35.0125H29.543V37.2412H31.7717V35.0125Z" fill="white"/>
<path d="M35.1144 38.3555H32.8857V40.5842H35.1144V38.3555Z" fill="white"/>
<path d="M38.4572 41.6986H36.2285V43.9273H38.4572V41.6986Z" fill="white"/>
<path d="M41.8 45.0416H39.5713V47.2703H41.8V45.0416Z" fill="white"/>
<path d="M46.258 45.0416H44.0293V47.2703H46.258V45.0416Z" fill="white"/>
<path d="M50.715 45.0416H48.4863V47.2703H50.715V45.0416Z" fill="white"/>
<path d="M55.173 45.0416H52.9443V47.2703H55.173V45.0416Z" fill="white"/>
<path d="M61.8586 60.6427H59.6299V62.8714H61.8586V60.6427Z" fill="white"/>
<path d="M58.5158 57.2996H56.2871V59.5283H58.5158V57.2996Z" fill="white"/>
<path d="M58.5158 52.8422H56.2871V55.0709H58.5158V52.8422Z" fill="white"/>
<path d="M58.5158 48.3848H56.2871V50.6135H58.5158V48.3848Z" fill="white"/>
</svg>
