<svg width="64" height="62" viewBox="0 0 64 62" fill="none" xmlns="http://www.w3.org/2000/svg">
<path d="M1.99137 24.4248C34.5518 24.4248 50.5726 13.7828 57.9127 6.04679V12.3822C57.9127 13.003 58.4165 13.5069 59.0373 13.5069C59.6581 13.5069 60.1619 13.003 60.1619 12.3822V3.05676C60.1619 3.03577 60.1514 3.01928 60.1499 2.99828C60.1455 2.91881 60.123 2.84533 60.1035 2.77036C60.0855 2.70438 60.0735 2.6369 60.0435 2.57542C60.0135 2.51394 59.97 2.46146 59.9295 2.40597C59.8845 2.343 59.8395 2.28151 59.7811 2.22753C59.7661 2.21404 59.7586 2.19454 59.7436 2.18105C59.7046 2.14956 59.6551 2.13906 59.6116 2.11357C59.5456 2.07308 59.4827 2.0341 59.4092 2.0071C59.3327 1.98011 59.2592 1.97112 59.1813 1.96212C59.1333 1.95612 59.0883 1.93213 59.0373 1.93213H48.8211C48.2003 1.93213 47.6965 2.43596 47.6965 3.05676C47.6965 3.67756 48.2003 4.1814 48.8211 4.1814H56.5721C49.6759 11.631 34.2234 22.1755 1.98987 22.1755C1.36907 22.1755 0.865234 22.6794 0.865234 23.3002C0.865234 23.921 1.37057 24.4248 1.99137 24.4248Z" fill="white"/>
<path d="M16.4222 38.4347H1.99085C1.37005 38.4347 0.866211 38.9385 0.866211 39.5593V60.8134C0.866211 61.4342 1.37005 61.938 1.99085 61.938H16.4222C17.0429 61.938 17.5468 61.4342 17.5468 60.8134V39.5593C17.5468 38.937 17.0429 38.4347 16.4222 38.4347ZM15.2975 59.6873H3.11548V40.684H15.2975V59.6873Z" fill="white"/>
<path d="M62.2884 17.1837H60.4814C60.3765 17.1837 60.2805 17.2167 60.1845 17.2437C60.1531 17.2527 60.1201 17.2512 60.0886 17.2632C59.9581 17.3127 59.8412 17.3862 59.7392 17.4791C59.7332 17.4836 59.7242 17.4851 59.7182 17.4911C59.7167 17.4926 59.7137 17.4941 59.7107 17.4971C59.7017 17.5061 59.6897 17.5136 59.6792 17.5241C56.3308 20.6401 52.2056 23.4067 47.4192 25.7519C47.4177 25.7534 47.4162 25.7549 47.4132 25.7549C47.3952 25.7639 47.3802 25.7729 47.3622 25.7819C47.3307 25.7969 47.3112 25.8254 47.2797 25.8449C47.1898 25.9004 47.1028 25.9574 47.0323 26.0353C46.9933 26.0788 46.9693 26.1298 46.9379 26.1763C46.8899 26.2468 46.8419 26.3157 46.8104 26.3952C46.7834 26.4657 46.7789 26.5392 46.7669 26.6141C46.7579 26.6741 46.7324 26.7266 46.7324 26.7881V60.812C46.7324 61.4328 47.2363 61.9367 47.8571 61.9367H62.2899C62.9107 61.9367 63.4145 61.4328 63.4145 60.812V18.3083C63.413 17.6876 62.9092 17.1837 62.2884 17.1837ZM61.1637 59.6874H48.9802V27.4689C53.5792 25.1566 57.5874 22.4605 60.9043 19.433H61.1637V59.6874Z" fill="white"/>
<path d="M40.4205 29.9131C40.416 29.8996 40.4055 29.8921 40.401 29.8801C40.3695 29.7991 40.3215 29.7331 40.275 29.6626C40.2405 29.6102 40.212 29.5532 40.17 29.5082C40.1176 29.4512 40.0516 29.4137 39.9871 29.3687C39.9331 29.3313 39.8851 29.2863 39.8252 29.2593C39.7592 29.2278 39.6857 29.2188 39.6137 29.2008C39.5418 29.1843 39.4743 29.1603 39.3993 29.1573C39.3828 29.1573 39.3708 29.1483 39.3558 29.1483C39.2838 29.1483 39.2224 29.1768 39.1534 29.1888C39.1009 29.1978 39.0469 29.1903 38.9944 29.2098C34.6129 30.6973 29.8129 31.8999 24.7296 32.7816C24.6876 32.7891 24.6561 32.8131 24.6156 32.8251C24.5391 32.8476 24.4672 32.8731 24.3967 32.9106C24.3352 32.9436 24.2812 32.9826 24.2287 33.0246C24.1703 33.071 24.1178 33.119 24.0698 33.1775C24.0248 33.2315 23.9888 33.287 23.9543 33.3485C23.9183 33.4129 23.8898 33.4759 23.8659 33.5464C23.8419 33.6169 23.8314 33.6873 23.8224 33.7638C23.8179 33.8058 23.7969 33.8448 23.7969 33.8898V60.8135C23.7969 61.4343 24.3007 61.9381 24.9215 61.9381H39.3543C39.9751 61.9381 40.4789 61.4343 40.4789 60.8135V30.2729C40.4789 30.2085 40.452 30.1515 40.443 30.0885C40.434 30.03 40.4415 29.9715 40.4205 29.9131ZM26.0476 59.6874V34.8195C30.3407 34.0367 34.4224 33.0246 38.2312 31.8085V59.6874H26.0476Z" fill="white"/>
<path d="M2.29143 15.4441C2.54335 15.5206 2.80576 15.5836 3.07717 15.633C3.34709 15.684 3.63949 15.7215 3.95289 15.747C4.2273 15.7695 4.5332 15.7815 4.86609 15.783V17.6169L5.1585 17.6829C5.27996 17.7099 5.39992 17.7294 5.52438 17.7444C5.64584 17.7579 5.7673 17.7639 5.88876 17.7639C5.99672 17.7639 6.11219 17.7579 6.23665 17.7444C6.36261 17.7294 6.48107 17.7099 6.59203 17.6814L6.87544 17.6094V15.5491C7.86512 15.3092 8.65836 14.8668 9.23417 14.231C9.87746 13.5202 10.2044 12.598 10.2044 11.4869C10.2044 10.9291 10.1264 10.4417 9.97193 10.0399C9.81898 9.6365 9.60005 9.28111 9.32114 8.98121C9.05123 8.69031 8.71984 8.43689 8.33746 8.22396C7.97158 8.02302 7.56521 7.82959 7.13335 7.64964L6.44808 7.36024C6.0792 7.20579 5.74931 7.06333 5.4584 6.93288C5.18999 6.81292 4.96206 6.67946 4.77762 6.53701C4.61268 6.41105 4.48822 6.2641 4.40574 6.10665C4.32477 5.9492 4.28428 5.75726 4.28428 5.53083C4.28428 5.05549 4.43273 4.7196 4.73713 4.50517C5.07902 4.26375 5.59336 4.14229 6.26664 4.14229C6.78847 4.14229 7.25182 4.18427 7.64619 4.26974C8.04356 4.35372 8.40044 4.45568 8.70934 4.56965L9.04823 4.69561L9.18619 4.36121C9.40362 3.83788 9.54457 3.30256 9.60755 2.76873L9.64204 2.47783L9.36913 2.37286C8.99875 2.23191 8.55489 2.11644 8.04956 2.02947C7.66418 1.96349 7.27131 1.91551 6.87544 1.88552V0.272045L6.59203 0.200068C6.15867 0.0921031 5.57386 0.0846054 5.145 0.201567L4.86759 0.276543V1.99199C3.89591 2.17493 3.12216 2.5633 2.56734 3.14961C1.94354 3.80639 1.62715 4.65512 1.62715 5.67329C1.62715 6.18162 1.69462 6.62997 1.82958 7.00485C1.96454 7.38423 2.16247 7.72162 2.41739 8.00353C2.66331 8.27644 2.95421 8.51486 3.28561 8.7128C3.599 8.90024 3.94989 9.07268 4.32327 9.22413L5.18399 9.58102C5.60235 9.76096 5.96673 9.91991 6.27713 10.0564C6.55604 10.1793 6.78697 10.3158 6.96391 10.4612C7.12436 10.5947 7.24132 10.7431 7.31779 10.9186C7.39877 11.0985 7.43926 11.3309 7.43926 11.6114C7.43926 12.1692 7.25032 12.5905 6.86044 12.9024C6.45258 13.2293 5.79279 13.3958 4.90058 13.3958C4.32027 13.3958 3.82243 13.3478 3.42056 13.2533C2.9992 13.1544 2.58833 13.0389 2.19096 12.9099L1.85207 12.799L1.72611 13.1334C1.62415 13.3958 1.53418 13.6657 1.4532 13.9446C1.36923 14.234 1.31375 14.5279 1.28676 14.8158L1.25977 15.1112L1.54167 15.2057C1.79809 15.2912 2.04701 15.3706 2.29143 15.4441Z" fill="white"/>
</svg>
