<svg width="31" height="32" viewBox="0 0 31 32" fill="none" xmlns="http://www.w3.org/2000/svg">
<path d="M12.9351 14.0812C11.5426 14.0812 10.1814 13.6683 9.02359 12.8947C7.86577 12.121 6.96336 11.0214 6.43047 9.73494C5.89758 8.44844 5.75815 7.03281 6.02982 5.66706C6.30148 4.30132 6.97204 3.0468 7.95668 2.06215C8.94133 1.0775 10.1958 0.40695 11.5616 0.135287C12.9273 -0.136377 14.343 0.00305058 15.6295 0.535938C16.916 1.06883 18.0156 1.97124 18.7892 3.12906C19.5628 4.28688 19.9758 5.64812 19.9758 7.04062C19.9758 8.9079 19.234 10.6987 17.9136 12.0191C16.5932 13.3395 14.8024 14.0812 12.9351 14.0812ZM12.9351 2.09207C11.9405 2.09207 10.9682 2.38702 10.1412 2.93961C9.31416 3.49221 8.66958 4.27763 8.28895 5.19656C7.90832 6.11549 7.80872 7.12666 8.00277 8.10219C8.19682 9.07773 8.67578 9.97381 9.3791 10.6771C10.0824 11.3804 10.9785 11.8594 11.954 12.0535C12.9296 12.2475 13.9407 12.1479 14.8597 11.7673C15.7786 11.3866 16.564 10.7421 17.1166 9.91505C17.6692 9.08803 17.9642 8.11573 17.9642 7.12108C17.9642 6.46066 17.8341 5.80671 17.5813 5.19656C17.3286 4.58642 16.9582 4.03202 16.4912 3.56503C16.0242 3.09805 15.4698 2.72761 14.8597 2.47488C14.2495 2.22215 13.5956 2.09207 12.9351 2.09207V2.09207Z" fill="#9F9F9F"/>
<path d="M18.537 15.2979C13.094 14.0731 7.39975 14.6631 2.32344 16.9776C1.6253 17.3111 1.03627 17.836 0.624938 18.4913C0.213603 19.1466 -0.00311096 19.9053 3.3744e-05 20.679V26.6635C3.37412e-05 26.7956 0.0260497 26.9264 0.076596 27.0484C0.127142 27.1704 0.201229 27.2813 0.294626 27.3747C0.388024 27.4681 0.498902 27.5422 0.620932 27.5927C0.742962 27.6433 0.873752 27.6693 1.00584 27.6693C1.13792 27.6693 1.26871 27.6433 1.39074 27.5927C1.51277 27.5422 1.62365 27.4681 1.71705 27.3747C1.81044 27.2813 1.88453 27.1704 1.93508 27.0484C1.98562 26.9264 2.01164 26.7956 2.01164 26.6635V20.679C2.00288 20.2874 2.10862 19.9018 2.31587 19.5695C2.52313 19.2372 2.82289 18.9726 3.17837 18.8082C6.23628 17.3962 9.56654 16.6718 12.9346 16.6859C14.8218 16.6835 16.7026 16.9064 18.537 17.3498V15.2979Z" fill="#9F9F9F"/>
<path d="M18.6777 24.8642H24.8534V26.2723H18.6777V24.8642Z" fill="#9F9F9F"/>
<path d="M29.7716 18.8893H24.5716V20.9009H28.7658V29.3195H14.5136V20.9009H20.8501V21.3234C20.8501 21.5901 20.9561 21.846 21.1447 22.0346C21.3333 22.2232 21.5892 22.3292 21.8559 22.3292C22.1227 22.3292 22.3785 22.2232 22.5671 22.0346C22.7557 21.846 22.8617 21.5901 22.8617 21.3234V17.4108C22.8617 17.1441 22.7557 16.8882 22.5671 16.6996C22.3785 16.511 22.1227 16.405 21.8559 16.405C21.5892 16.405 21.3333 16.511 21.1447 16.6996C20.9561 16.8882 20.8501 17.1441 20.8501 17.4108V18.8893H13.5078C13.241 18.8893 12.9852 18.9953 12.7965 19.1839C12.6079 19.3726 12.502 19.6284 12.502 19.8951V30.3253C12.502 30.5921 12.6079 30.8479 12.7965 31.0365C12.9852 31.2252 13.241 31.3311 13.5078 31.3311H29.7716C30.0383 31.3311 30.2942 31.2252 30.4828 31.0365C30.6714 30.8479 30.7774 30.5921 30.7774 30.3253V19.8951C30.7774 19.6284 30.6714 19.3726 30.4828 19.1839C30.2942 18.9953 30.0383 18.8893 29.7716 18.8893Z" fill="#9F9F9F"/>
</svg>
