<svg width="25" height="25" viewBox="0 0 25 25" fill="none" xmlns="http://www.w3.org/2000/svg">
<path d="M2.77224 0.220947L2.90753 0.232973C3.05771 0.260409 3.19597 0.332927 3.30392 0.440877C3.41187 0.548827 3.48439 0.687091 3.51183 0.837269L3.52385 0.97256V4.29769C5.32267 2.25743 7.76002 0.887239 10.438 0.410817C13.1159 -0.0656051 15.8763 0.379886 18.2684 1.67456C20.6605 2.96923 22.5431 5.03661 23.6088 7.53916C24.6744 10.0417 24.8602 12.8316 24.1358 15.4534C23.4115 18.0752 21.8197 20.3739 19.6204 21.9744C17.4211 23.5748 14.7441 24.3824 12.0267 24.2654C9.30918 24.1483 6.71166 23.1134 4.65817 21.3297C2.60468 19.546 1.21653 17.1188 0.720341 14.4445C0.559695 13.4609 0.494253 12.4642 0.524922 11.4681C0.542155 11.2757 0.632821 11.0973 0.778101 10.9699C0.923381 10.8426 1.11212 10.7761 1.30514 10.7842C1.49816 10.7923 1.68064 10.8744 1.81471 11.0135C1.94878 11.1526 2.02413 11.338 2.02514 11.5312C1.99934 12.414 2.05671 13.2973 2.19651 14.1694C2.63969 16.56 3.89706 18.7234 5.75489 20.2918C7.61273 21.8602 9.95638 22.7369 12.3875 22.7728C14.8186 22.8087 17.1871 22.0016 19.0904 20.4887C20.9937 18.9758 22.3144 16.8505 22.828 14.474C23.3415 12.0975 23.0163 9.61644 21.9075 7.45264C20.7987 5.28883 18.9748 3.57576 16.7458 2.60461C14.5168 1.63347 12.0203 1.46418 9.6806 2.12552C7.34091 2.78687 5.30244 4.23803 3.91169 6.23234L8.78514 6.23385L8.92043 6.24587C9.09373 6.27725 9.2505 6.36848 9.36339 6.50365C9.47629 6.63882 9.53813 6.80935 9.53813 6.98546C9.53813 7.16157 9.47629 7.33209 9.36339 7.46726C9.2505 7.60243 9.09373 7.69367 8.92043 7.72505L8.78514 7.73707H2.77224L2.63695 7.72505C2.48677 7.69761 2.34851 7.62509 2.24056 7.51714C2.13261 7.40919 2.06009 7.27093 2.03266 7.12075L2.02063 6.98546V0.97256L2.03266 0.837269C2.06009 0.687091 2.13261 0.548827 2.24056 0.440877C2.34851 0.332927 2.48677 0.260409 2.63695 0.232973L2.77224 0.220947ZM11.7916 6.23385L11.9269 6.24587C12.0771 6.27331 12.2153 6.34583 12.3233 6.45378C12.4312 6.56173 12.5037 6.69999 12.5312 6.85017L12.5432 6.98546V13.0044H15.5497L15.6849 13.0164C15.8582 13.0478 16.015 13.139 16.1279 13.2742C16.2408 13.4093 16.3026 13.5799 16.3026 13.756C16.3026 13.9321 16.2408 14.1026 16.1279 14.2378C16.015 14.373 15.8582 14.4642 15.6849 14.4956L15.5497 14.5076H11.7916L11.6563 14.4956C11.5061 14.4681 11.3679 14.3956 11.2599 14.2877C11.152 14.1797 11.0794 14.0415 11.052 13.8913L11.04 13.756V6.98546L11.052 6.85017C11.0794 6.69999 11.152 6.56173 11.2599 6.45378C11.3679 6.34583 11.5061 6.27331 11.6563 6.24587L11.7916 6.23385Z" fill="#9F9F9F"/>
</svg>
