<svg width="3" height="15" viewBox="0 0 3 15" fill="none" xmlns="http://www.w3.org/2000/svg">
<path d="M1.48398 3.50117C2.25718 3.50117 2.88398 2.87437 2.88398 2.10117C2.88398 1.32797 2.25718 0.701172 1.48398 0.701172C0.710786 0.701172 0.0839844 1.32797 0.0839844 2.10117C0.0839844 2.87437 0.710786 3.50117 1.48398 3.50117Z" fill="#838181"/>
<path d="M1.48398 9.10078C2.25718 9.10078 2.88398 8.47398 2.88398 7.70078C2.88398 6.92758 2.25718 6.30078 1.48398 6.30078C0.710786 6.30078 0.0839844 6.92758 0.0839844 7.70078C0.0839844 8.47398 0.710786 9.10078 1.48398 9.10078Z" fill="#838181"/>
<path d="M1.48398 14.7004C2.25718 14.7004 2.88398 14.0736 2.88398 13.3004C2.88398 12.5272 2.25718 11.9004 1.48398 11.9004C0.710786 11.9004 0.0839844 12.5272 0.0839844 13.3004C0.0839844 14.0736 0.710786 14.7004 1.48398 14.7004Z" fill="#838181"/>
</svg>
