<svg width="18" height="18" viewBox="0 0 18 18" fill="none" xmlns="http://www.w3.org/2000/svg">
<path d="M16.6607 7.89558H9.44273V0.677659C9.44273 0.503631 9.3736 0.33673 9.25055 0.213674C9.12749 0.090617 8.96059 0.0214844 8.78656 0.0214844C8.61253 0.0214844 8.44563 0.090617 8.32257 0.213674C8.19952 0.33673 8.13038 0.503631 8.13038 0.677659V7.89558H0.912464C0.738436 7.89558 0.571535 7.96471 0.448479 8.08777C0.325422 8.21082 0.256289 8.37773 0.256289 8.55175C0.253051 8.63703 0.268131 8.72202 0.300512 8.80098C0.332894 8.87994 0.381824 8.95104 0.444006 9.00949C0.506187 9.06794 0.580176 9.11238 0.660986 9.13982C0.741795 9.16726 0.827547 9.17706 0.912464 9.16856H8.13038V16.4258C8.13038 16.5999 8.19952 16.7668 8.32257 16.8898C8.44563 17.0129 8.61253 17.082 8.78656 17.082C8.96059 17.082 9.12749 17.0129 9.25055 16.8898C9.3736 16.7668 9.44273 16.5999 9.44273 16.4258V9.20793H16.6607C16.8347 9.20793 17.0016 9.1388 17.1246 9.01574C17.2477 8.89268 17.3168 8.72578 17.3168 8.55175C17.3168 8.37773 17.2477 8.21082 17.1246 8.08777C17.0016 7.96471 16.8347 7.89558 16.6607 7.89558Z" fill="white"/>
</svg>
