<svg width="14" height="14" viewBox="0 0 14 14" fill="none" xmlns="http://www.w3.org/2000/svg">
<path d="M5.66668 0.338684C6.64515 0.338517 7.60341 0.617196 8.42918 1.14207C9.25496 1.66695 9.91406 2.41628 10.3293 3.30229C10.7445 4.1883 10.8986 5.17428 10.7736 6.14473C10.6485 7.11518 10.2495 8.0299 9.62331 8.78174L13.4863 12.6438C13.5692 12.7264 13.6182 12.837 13.6236 12.9539C13.6291 13.0707 13.5905 13.1854 13.5156 13.2753C13.4406 13.3651 13.3347 13.4236 13.2188 13.4393C13.1028 13.455 12.9852 13.4266 12.8891 13.3599L12.8236 13.3065L8.96153 9.44351C8.32614 9.97246 7.57272 10.3406 6.76498 10.5168C5.95724 10.693 5.11894 10.6721 4.321 10.4558C3.52305 10.2395 2.78892 9.83429 2.18071 9.27432C1.5725 8.71435 1.10809 8.01613 0.826762 7.23873C0.545437 6.46133 0.455473 5.62762 0.564477 4.8081C0.673481 3.98858 0.978249 3.20737 1.453 2.53054C1.92775 1.8537 2.55853 1.30116 3.29197 0.919643C4.02541 0.538125 4.83994 0.338854 5.66668 0.338684ZM5.66668 1.27472C4.54954 1.27472 3.47816 1.7185 2.68823 2.50844C1.89829 3.29837 1.45451 4.36975 1.45451 5.48689C1.45451 6.60402 1.89829 7.6754 2.68823 8.46534C3.47816 9.25527 4.54954 9.69905 5.66668 9.69905C6.78381 9.69905 7.8552 9.25527 8.64513 8.46534C9.43506 7.6754 9.87884 6.60402 9.87884 5.48689C9.87884 4.36975 9.43506 3.29837 8.64513 2.50844C7.8552 1.7185 6.78381 1.27472 5.66668 1.27472Z" fill="#9F9F9F"/>
</svg>
