<svg width="21" height="13" viewBox="0 0 21 13" fill="none" xmlns="http://www.w3.org/2000/svg">
<path fill-rule="evenodd" clip-rule="evenodd" d="M13.9314 12.4591C13.8528 12.3808 13.7905 12.2877 13.7479 12.1852C13.7054 12.0826 13.6835 11.9728 13.6835 11.8618C13.6835 11.7508 13.7054 11.6409 13.7479 11.5384C13.7905 11.4359 13.8528 11.3428 13.9314 11.2644L18.3982 6.79927L13.9314 2.33415C13.8529 2.2557 13.7907 2.16257 13.7483 2.06007C13.7058 1.95757 13.6839 1.84772 13.6839 1.73677C13.6839 1.62583 13.7058 1.51598 13.7483 1.41348C13.7907 1.31098 13.8529 1.21785 13.9314 1.1394C14.0098 1.06095 14.103 0.998722 14.2055 0.956267C14.308 0.913811 14.4178 0.89196 14.5288 0.89196C14.6397 0.89196 14.7496 0.913811 14.8521 0.956267C14.9546 0.998723 15.0477 1.06095 15.1261 1.1394L20.1886 6.2019C20.2672 6.28028 20.3296 6.37339 20.3721 6.47589C20.4146 6.5784 20.4365 6.68829 20.4365 6.79927C20.4365 6.91026 20.4146 7.02015 20.3721 7.12266C20.3296 7.22516 20.2672 7.31827 20.1886 7.39665L15.1261 12.4591C15.0478 12.5377 14.9547 12.6001 14.8521 12.6426C14.7496 12.6851 14.6397 12.707 14.5288 12.707C14.4178 12.707 14.3079 12.6851 14.2054 12.6426C14.1029 12.6001 14.0098 12.5377 13.9314 12.4591Z" fill="white"/>
<path fill-rule="evenodd" clip-rule="evenodd" d="M19.5908 6.79919C19.5908 7.02297 19.5019 7.23758 19.3437 7.39582C19.1855 7.55405 18.9708 7.64294 18.7471 7.64294L1.02832 7.64294C0.804541 7.64294 0.589928 7.55405 0.431694 7.39581C0.27346 7.23758 0.184567 7.02297 0.184567 6.79919C0.184567 6.57542 0.273461 6.3608 0.431694 6.20257C0.589928 6.04434 0.804541 5.95544 1.02832 5.95544L18.7471 5.95544C18.9708 5.95544 19.1855 6.04434 19.3437 6.20257C19.5019 6.36081 19.5908 6.57542 19.5908 6.79919Z" fill="white"/>
</svg>
