<svg width="19" height="19" viewBox="0 0 19 19" fill="none" xmlns="http://www.w3.org/2000/svg">
<circle cx="9.25498" cy="9.32261" r="8.76523" fill="#315B14"/>
<path d="M8.18493 12.3222C8.11637 12.322 8.04859 12.3077 7.9858 12.2802C7.92301 12.2526 7.86655 12.2125 7.81993 12.1622L5.38993 9.57722C5.29909 9.48042 5.25043 9.35149 5.25465 9.21881C5.25887 9.08613 5.31562 8.96056 5.41243 8.86972C5.50923 8.77888 5.63815 8.73022 5.77084 8.73444C5.90352 8.73866 6.02909 8.79542 6.11993 8.89222L8.17993 11.0872L12.3849 6.48722C12.4276 6.43408 12.4807 6.39023 12.5409 6.35835C12.6012 6.32648 12.6673 6.30725 12.7352 6.30186C12.8032 6.29647 12.8715 6.30502 12.936 6.327C13.0005 6.34897 13.0598 6.3839 13.1104 6.42964C13.1609 6.47539 13.2015 6.53097 13.2298 6.59299C13.258 6.65501 13.2733 6.72215 13.2747 6.79029C13.276 6.85843 13.2635 6.92613 13.2377 6.98923C13.212 7.05233 13.1736 7.10949 13.1249 7.15722L8.55493 12.1572C8.50875 12.2084 8.45248 12.2495 8.38967 12.2779C8.32686 12.3063 8.25885 12.3214 8.18993 12.3222H8.18493Z" fill="white"/>
</svg>
