<svg width="17" height="18" viewBox="0 0 17 18" fill="none" xmlns="http://www.w3.org/2000/svg">
<path d="M7.05023 0.758545C8.26962 0.758337 9.46382 1.10563 10.4929 1.75974C11.522 2.41386 12.3434 3.34769 12.8608 4.45186C13.3783 5.55602 13.5703 6.78477 13.4145 7.99416C13.2587 9.20356 12.7615 10.3435 11.9811 11.2805L16.7952 16.0935C16.8986 16.1963 16.9596 16.3342 16.9664 16.4798C16.9731 16.6255 16.9251 16.7684 16.8317 16.8804C16.7383 16.9924 16.6063 17.0653 16.4618 17.0848C16.3173 17.1043 16.1708 17.069 16.051 16.9858L15.9694 16.9194L11.1563 12.1052C10.3645 12.7644 9.42557 13.2231 8.41895 13.4427C7.41233 13.6623 6.36763 13.6363 5.37321 13.3667C4.37879 13.0972 3.4639 12.5922 2.70594 11.8943C1.94797 11.1965 1.36921 10.3263 1.01862 9.35753C0.668027 8.38872 0.555911 7.34973 0.691755 6.32843C0.827598 5.30713 1.20741 4.33356 1.79905 3.49008C2.3907 2.64659 3.17678 1.958 4.09081 1.48255C5.00484 1.00709 6.01993 0.758756 7.05023 0.758545ZM7.05023 1.92505C5.65803 1.92505 4.32285 2.4781 3.33842 3.46253C2.35399 4.44697 1.80094 5.78215 1.80094 7.17434C1.80094 8.56654 2.35399 9.90172 3.33842 10.8862C4.32285 11.8706 5.65803 12.4236 7.05023 12.4236C8.44242 12.4236 9.7776 11.8706 10.762 10.8862C11.7465 9.90172 12.2995 8.56654 12.2995 7.17434C12.2995 5.78215 11.7465 4.44697 10.762 3.46253C9.7776 2.4781 8.44242 1.92505 7.05023 1.92505Z" fill="#9F9F9F"/>
</svg>
