<svg width="72" height="72" viewBox="0 0 72 72" fill="none" xmlns="http://www.w3.org/2000/svg">
<path d="M63.3295 26.8052C65.393 25.4074 66.752 23.0456 66.752 20.3708C66.752 16.0887 63.2674 12.6052 58.9863 12.6052V1.51147H1.29883V48.1052H17.4469C18.2168 49.4254 19.6324 50.324 21.2676 50.324V61.9724C21.2676 64.1135 23.0093 65.8552 25.1504 65.8552C26.2376 65.8552 27.2183 65.4037 27.9238 64.6815C28.6294 65.4037 29.6101 65.8552 30.6973 65.8552C32.8384 65.8552 34.5801 64.1135 34.5801 61.9724V51.9259C35.2357 52.3075 35.9868 52.5427 36.7988 52.5427V66.4099C36.7988 68.551 38.5405 70.2927 40.6816 70.2927C41.7688 70.2927 42.7495 69.8412 43.4551 69.119C44.1606 69.8412 45.1413 70.2927 46.2285 70.2927C48.3696 70.2927 50.1113 68.551 50.1113 66.4099V52.5427C50.9234 52.5427 51.6744 52.3075 52.3301 51.9259V61.9724C52.3301 64.1135 54.0718 65.8552 56.2129 65.8552C57.3001 65.8552 58.2808 65.4037 58.9863 64.6815C59.6919 65.4037 60.6726 65.8552 61.7598 65.8552C63.9009 65.8552 65.6426 64.1135 65.6426 61.9724V50.324C68.0899 50.324 70.0801 48.3338 70.0801 45.8865V37.0115C70.0801 32.4353 67.2933 28.4981 63.3295 26.8052ZM64.5332 20.3708C64.5332 23.4294 62.0449 25.9177 58.9863 25.9177C55.9278 25.9177 53.4395 23.4294 53.4395 20.3708C53.4395 17.3123 55.9278 14.824 58.9863 14.824C62.0449 14.824 64.5332 17.3123 64.5332 20.3708ZM56.7676 3.73022V10.3865H3.51758V3.73022H56.7676ZM3.51758 45.8865V12.6052H27.9238H56.7676V12.9325C53.5648 13.8899 51.2207 16.8608 51.2207 20.3708C51.2207 23.0489 52.5841 25.4152 54.652 26.8108C52.299 27.8148 50.3277 29.6153 49.1295 31.9339C48.7013 31.6776 48.2609 31.4402 47.7983 31.2427C49.8617 29.8449 51.2207 27.4831 51.2207 24.8083C51.2207 20.5262 47.7362 17.0427 43.4551 17.0427C39.174 17.0427 35.6895 20.5262 35.6895 24.8083C35.6895 27.4831 37.0484 29.8449 39.1119 31.2427C38.6493 31.4402 38.2088 31.6776 37.7806 31.9339C36.5836 29.6164 34.6111 27.8148 32.2582 26.8108C34.326 25.4152 35.6895 23.0489 35.6895 20.3708C35.6895 16.0887 32.2049 12.6052 27.9238 12.6052C23.6427 12.6052 20.1582 16.0887 20.1582 20.3708C20.1582 23.0456 21.5172 25.4074 23.5806 26.8052C19.6168 28.4981 16.8301 32.4353 16.8301 37.0115V45.8865H3.51758ZM37.9082 24.8083C37.9082 21.7498 40.3965 19.2615 43.4551 19.2615C46.5136 19.2615 49.002 21.7498 49.002 24.8083C49.002 27.8669 46.5136 30.3552 43.4551 30.3552C40.3965 30.3552 37.9082 27.8669 37.9082 24.8083ZM22.377 20.3708C22.377 17.3123 24.8653 14.824 27.9238 14.824C30.9824 14.824 33.4707 17.3123 33.4707 20.3708C33.4707 23.4294 30.9824 25.9177 27.9238 25.9177C24.8653 25.9177 22.377 23.4294 22.377 20.3708ZM32.3613 61.9724C32.3613 62.8899 31.6147 63.6365 30.6973 63.6365C29.7798 63.6365 29.0332 62.8899 29.0332 61.9724V43.6677H26.8145V61.9724C26.8145 62.8899 26.0678 63.6365 25.1504 63.6365C24.2329 63.6365 23.4863 62.8899 23.4863 61.9724V35.9021H21.2676V48.1052C20.0439 48.1052 19.0488 47.1101 19.0488 45.8865V37.0115C19.0488 32.118 23.0304 28.1365 27.9238 28.1365C31.3895 28.1365 34.5168 30.191 35.9568 33.2973C33.7525 35.3252 32.3613 38.224 32.3613 41.449V42.5583V48.1052V61.9724ZM50.1113 50.324V40.3396H47.8926V66.4099C47.8926 67.3274 47.146 68.074 46.2285 68.074C45.3111 68.074 44.5645 67.3274 44.5645 66.4099V48.1052H42.3457V66.4099C42.3457 67.3274 41.5991 68.074 40.6816 68.074C39.7642 68.074 39.0176 67.3274 39.0176 66.4099V40.3396H36.7988V50.324C35.5752 50.324 34.5801 49.3289 34.5801 48.1052V42.5583V41.449C34.5801 36.5555 38.5616 32.574 43.4551 32.574C48.3485 32.574 52.3301 36.5555 52.3301 41.449V42.5583V48.1052C52.3301 49.3289 51.335 50.324 50.1113 50.324ZM67.8613 45.8865C67.8613 47.1101 66.8662 48.1052 65.6426 48.1052V35.9021H63.4238V61.9724C63.4238 62.8899 62.6772 63.6365 61.7598 63.6365C60.8423 63.6365 60.0957 62.8899 60.0957 61.9724V43.6677H57.877V61.9724C57.877 62.8899 57.1303 63.6365 56.2129 63.6365C55.2954 63.6365 54.5488 62.8899 54.5488 61.9724V48.1052V42.5583V41.449C54.5488 38.224 53.1577 35.3252 50.9533 33.2973C52.3933 30.191 55.5206 28.1365 58.9863 28.1365C63.8798 28.1365 67.8613 32.118 67.8613 37.0115V45.8865Z" fill="white"/>
<path d="M5.73633 5.94897H7.95508V8.16772H5.73633V5.94897Z" fill="white"/>
<path d="M10.1738 5.94897H12.3926V8.16772H10.1738V5.94897Z" fill="white"/>
<path d="M14.6113 5.94897H16.8301V8.16772H14.6113V5.94897Z" fill="white"/>
<path d="M5.73633 14.824H7.95508V17.0427H5.73633V14.824Z" fill="white"/>
<path d="M10.1738 14.824H12.3926V17.0427H10.1738V14.824Z" fill="white"/>
<path d="M14.6113 14.824H16.8301V17.0427H14.6113V14.824Z" fill="white"/>
<path d="M5.73633 19.2615H16.8301V21.4802H5.73633V19.2615Z" fill="white"/>
<path d="M5.73633 23.699H16.8301V25.9177H5.73633V23.699Z" fill="white"/>
<path d="M5.73633 28.1365H16.8301V30.3552H5.73633V28.1365Z" fill="white"/>
<path d="M5.73633 32.574H14.6113V34.7927H5.73633V32.574Z" fill="white"/>
<path d="M5.73633 37.0115H14.6113V39.2302H5.73633V37.0115Z" fill="white"/>
<path d="M5.73633 41.449H14.6113V43.6677H5.73633V41.449Z" fill="white"/>
</svg>
