<svg width="74" height="74" viewBox="0 0 74 74" fill="none" xmlns="http://www.w3.org/2000/svg">
<g clip-path="url(#clip0)">
<path d="M28.4831 25.1707H26.0498V27.604H28.4831V25.1707Z" fill="white"/>
<path d="M28.4831 30.0374H26.0498V32.4707H28.4831V30.0374Z" fill="white"/>
<path d="M28.4831 34.9041H26.0498V37.3374H28.4831V34.9041Z" fill="white"/>
<path d="M28.4831 39.7708H26.0498V42.2041H28.4831V39.7708Z" fill="white"/>
<path d="M33.3503 25.1707H30.917V27.604H33.3503V25.1707Z" fill="white"/>
<path d="M33.3503 30.0374H30.917V32.4707H33.3503V30.0374Z" fill="white"/>
<path d="M33.3503 34.9041H30.917V37.3374H33.3503V34.9041Z" fill="white"/>
<path d="M33.3503 39.7708H30.917V42.2041H33.3503V39.7708Z" fill="white"/>
<path d="M38.2165 25.1707H35.7832V27.604H38.2165V25.1707Z" fill="white"/>
<path d="M38.2165 30.0374H35.7832V32.4707H38.2165V30.0374Z" fill="white"/>
<path d="M38.2165 34.9041H35.7832V37.3374H38.2165V34.9041Z" fill="white"/>
<path d="M38.2165 39.7708H35.7832V42.2041H38.2165V39.7708Z" fill="white"/>
<path d="M43.0837 25.1707H40.6504V27.604H43.0837V25.1707Z" fill="white"/>
<path d="M33.3503 20.304H30.917V22.7373H33.3503V20.304Z" fill="white"/>
<path d="M38.2165 20.304H35.7832V22.7373H38.2165V20.304Z" fill="white"/>
<path d="M43.0837 20.304H40.6504V22.7373H43.0837V20.304Z" fill="white"/>
<path d="M43.0837 30.0374H40.6504V32.4707H43.0837V30.0374Z" fill="white"/>
<path d="M43.0837 34.9041H40.6504V37.3374H43.0837V34.9041Z" fill="white"/>
<path d="M43.0837 39.7708H40.6504V42.2041H43.0837V39.7708Z" fill="white"/>
<path d="M47.9499 25.1707H45.5166V27.604H47.9499V25.1707Z" fill="white"/>
<path d="M47.9499 30.0374H45.5166V32.4707H47.9499V30.0374Z" fill="white"/>
<path d="M47.9499 34.9041H45.5166V37.3374H47.9499V34.9041Z" fill="white"/>
<path d="M47.9499 39.7708H45.5166V42.2041H47.9499V39.7708Z" fill="white"/>
<path d="M72.2847 19.0874C72.2842 19.0874 72.2838 19.0874 72.2833 19.0874H54.0333V2.05407C54.0338 1.38247 53.4896 0.837859 52.818 0.837403C52.8176 0.837403 52.8171 0.837403 52.8167 0.837403H21.1833C20.5117 0.836946 19.9671 1.3811 19.9667 2.0527C19.9667 2.05316 19.9667 2.05361 19.9667 2.05407V19.0874H1.71667C1.04507 19.0869 0.500457 19.6311 0.5 20.3027C0.5 20.3032 0.5 20.3036 0.5 20.3041V64.1041C0.499544 64.7757 1.0437 65.3203 1.7153 65.3207C1.71575 65.3207 1.71621 65.3207 1.71667 65.3207H4.25996C4.18939 65.7225 4.15259 66.1295 4.15 66.5374V72.6207C4.14954 73.2923 4.6937 73.8369 5.3653 73.8374C5.36575 73.8374 5.36621 73.8374 5.36667 73.8374H68.6333C69.3049 73.8379 69.8495 73.2937 69.85 72.6221C69.85 72.6217 69.85 72.6212 69.85 72.6207V66.5374C69.8476 66.1295 69.8108 65.7225 69.74 65.3207H72.2833C72.9549 65.3212 73.4995 64.777 73.5 64.1054C73.5 64.105 73.5 64.1045 73.5 64.1041V20.3041C73.5005 19.6325 72.9563 19.0879 72.2847 19.0874ZM52.8167 53.1541C52.8167 54.498 51.7273 55.5874 50.3833 55.5874C49.0394 55.5874 47.95 54.498 47.95 53.1541C47.95 51.8101 49.0394 50.7207 50.3833 50.7207C51.7265 50.7224 52.815 51.8109 52.8167 53.1541ZM23.6167 50.7207C24.9606 50.7207 26.05 51.8101 26.05 53.1541C26.05 54.498 24.9606 55.5874 23.6167 55.5874C22.2727 55.5874 21.1833 54.498 21.1833 53.1541C21.185 51.8109 22.2735 50.7224 23.6167 50.7207ZM16.3167 71.4041H6.58333V66.5374C6.58333 63.8496 8.76223 61.6707 11.45 61.6707C14.1378 61.6707 16.3167 63.8496 16.3167 66.5374V71.4041ZM9.01667 56.8041C9.01667 55.4601 10.106 54.3707 11.45 54.3707C12.794 54.3707 13.8833 55.4601 13.8833 56.8041C13.8833 58.148 12.794 59.2374 11.45 59.2374C10.1068 59.2357 9.01834 58.1473 9.01667 56.8041ZM16.501 61.2791C16.0422 60.8366 15.5277 60.4557 14.9704 60.1463C16.8261 58.202 16.7545 55.1214 14.8103 53.2655C12.866 51.4097 9.78545 51.4815 7.92958 53.4257C6.13454 55.3062 6.13454 58.2656 7.92958 60.1461C6.76827 60.7906 5.80345 61.738 5.13763 62.8872H2.93333V21.5207H19.9667V49.9688C18.2959 51.8436 18.3523 54.6894 20.0962 56.4963C18.2712 57.5056 16.9635 59.2455 16.501 61.2791ZM28.4833 71.4041H18.75V62.8874C18.75 60.1996 20.9289 58.0207 23.6167 58.0207C26.3044 58.0207 28.4833 60.1996 28.4833 62.8874V71.4041ZM43.0833 71.4041H30.9167V62.8874C30.9167 59.5277 33.6403 56.8041 37 56.8041C40.3597 56.8041 43.0833 59.5277 43.0833 62.8874V71.4041ZM33.35 50.7207C33.35 48.7049 34.9841 47.0707 37 47.0707C39.0159 47.0707 40.65 48.7049 40.65 50.7207C40.65 52.7366 39.0159 54.3707 37 54.3707C34.9851 54.3686 33.3521 52.7357 33.35 50.7207ZM44.4098 58.7043C43.5951 57.2681 42.383 56.0978 40.919 55.3342C43.4888 53.1697 43.8173 49.3319 41.653 46.7622C39.4885 44.1924 35.6507 43.8639 33.081 46.0282C30.5112 48.1927 30.1827 52.0305 32.347 54.6002C32.5703 54.8653 32.8157 55.1108 33.081 55.3342C31.617 56.0978 30.4049 57.2681 29.5902 58.7043C28.9505 57.7919 28.1116 57.0368 27.1371 56.4963C29.0024 54.5881 28.9677 51.5289 27.0594 49.6636C25.8307 48.4625 24.0566 48.0044 22.4 48.4602V3.27074H51.6V48.4602C51.2035 48.3508 50.7946 48.2927 50.3833 48.2874C47.7027 48.2803 45.5238 50.4476 45.5167 53.1284C45.5133 54.3828 45.9959 55.5898 46.8629 56.4963C45.8884 57.0368 45.0495 57.7919 44.4098 58.7043ZM55.25 66.5374V71.4041H45.5167V62.8874C45.5167 60.1996 47.6956 58.0207 50.3833 58.0207C53.0711 58.0207 55.25 60.1996 55.25 62.8874V66.5374ZM67.4167 71.4041H57.6833V66.5374C57.6833 63.8496 59.8622 61.6707 62.55 61.6707C65.2378 61.6707 67.4167 63.8496 67.4167 66.5374V71.4041ZM60.1167 56.8041C60.1167 55.4601 61.206 54.3707 62.55 54.3707C63.894 54.3707 64.9833 55.4601 64.9833 56.8041C64.9833 58.148 63.894 59.2374 62.55 59.2374C61.2068 59.2357 60.1183 58.1473 60.1167 56.8041ZM71.0667 62.8874H68.8624C68.1966 61.7381 67.2317 60.7908 66.0704 60.1463C67.9261 58.202 67.8545 55.1214 65.9103 53.2655C63.966 51.4098 60.8854 51.4815 59.0296 53.4257C57.2345 55.3062 57.2345 58.2656 59.0296 60.1461C58.4723 60.4556 57.9577 60.8364 57.499 61.279C57.0367 59.2453 55.7288 57.5055 53.9038 56.4961C55.6477 54.6892 55.7043 51.8434 54.0335 49.9687V21.5207H71.0668V62.8874H71.0667Z" fill="white"/>
<path d="M60.1169 28.8208H57.6836V48.2875H60.1169V28.8208Z" fill="white"/>
<path d="M67.4167 28.8208H64.9834V48.2875H67.4167V28.8208Z" fill="white"/>
<path d="M9.01634 28.8208H6.58301V48.2875H9.01634V28.8208Z" fill="white"/>
<path d="M16.3171 28.8208H13.8838V48.2875H16.3171V28.8208Z" fill="white"/>
<path d="M44.3014 5.7041C44.301 5.7041 44.3005 5.7041 44.3001 5.7041H29.7001C29.0285 5.70365 28.4839 6.2478 28.4834 6.9194C28.4834 6.91986 28.4834 6.92031 28.4834 6.92077V16.6541C28.4829 17.3257 29.0271 17.8703 29.6987 17.8708C29.6992 17.8708 29.6996 17.8708 29.7001 17.8708H44.3001C44.9717 17.8712 45.5163 17.3271 45.5167 16.6555C45.5167 16.655 45.5167 16.6546 45.5167 16.6541V6.92077C45.5172 6.24917 44.973 5.70456 44.3014 5.7041ZM43.0834 15.4374H30.9167V8.13743H43.0834V15.4374Z" fill="white"/>
</g>
<defs>
<clipPath id="clip0">
<rect width="73" height="73" fill="white" transform="translate(0.5 0.837402)"/>
</clipPath>
</defs>
</svg>
