<svg width="65" height="65" viewBox="0 0 65 65" fill="none" xmlns="http://www.w3.org/2000/svg">
<path d="M32.3791 0.589111C36.6688 0.589111 40.5524 2.32896 43.3641 5.13847C46.1759 7.95019 47.9135 11.8338 47.9135 16.1235C47.9135 20.4132 46.1736 24.2968 43.3641 27.1085C40.5524 29.9202 36.6688 31.6579 32.3791 31.6579C28.0894 31.6579 24.2058 29.918 21.3941 27.1085C18.5824 24.2968 16.8447 20.4132 16.8447 16.1235C16.8447 11.8338 18.5846 7.95019 21.3941 5.13847C24.2058 2.32674 28.0894 0.589111 32.3791 0.589111ZM40.224 8.27863C38.2156 6.27026 35.4416 5.02751 32.3791 5.02751C29.3166 5.02751 26.5404 6.27026 24.5342 8.27863C22.5259 10.287 21.2831 13.061 21.2831 16.1235C21.2831 19.186 22.5259 21.9622 24.5342 23.9684C26.5426 25.9767 29.3166 27.2195 32.3791 27.2195C35.4416 27.2195 38.2178 25.9767 40.224 23.9684C42.2323 21.96 43.4751 19.186 43.4751 16.1235C43.4751 13.061 42.2323 10.2848 40.224 8.27863Z" fill="white"/>
<path d="M4.493 59.9061H59.771L59.558 45.9629C59.5202 43.3842 58.4017 41.1339 56.309 39.292C54.1853 37.4212 51.0806 35.9477 47.0905 34.9335C45.1864 36.4381 43.0427 37.6587 40.7281 38.5264C38.1338 39.5006 35.3354 40.031 32.4283 40.031C29.5122 40.031 26.7049 39.4939 24.104 38.5175C21.7872 37.6476 19.639 36.4181 17.7305 34.9046C13.5407 35.921 10.2452 37.4101 7.99711 39.3142C5.83561 41.145 4.66388 43.382 4.63725 45.9562L4.493 59.9083V59.9061ZM62.0146 64.3445L2.24051 64.3356C1.01995 64.3268 0.0368486 63.3281 0.0479446 62.1076L0.214384 45.9207C0.25433 41.9706 1.96977 38.6107 5.13435 35.9321C8.12804 33.3978 12.4333 31.5004 17.8282 30.3331C18.4895 30.1955 19.2063 30.3575 19.7522 30.8346C21.4743 32.3437 23.4738 33.5509 25.6619 34.3743C27.7568 35.1621 30.036 35.5926 32.426 35.5926C34.8206 35.5926 37.0975 35.1643 39.1813 34.3831C41.3361 33.5753 43.3134 32.3858 45.0266 30.899C45.5437 30.4241 46.2761 30.1999 47.0106 30.3664C52.2546 31.5492 56.3778 33.4488 59.2339 35.9632C62.2831 38.6462 63.9142 42.0016 63.9742 45.9119L64.2316 62.1253C64.2316 63.3503 63.2374 64.3445 62.0124 64.3445H62.0146Z" fill="white"/>
</svg>
